<?xml version="1.0" standalone="no"?><!DOCTYPE svg PUBLIC "-//W3C//DTD SVG 1.1//EN"
        "http://www.w3.org/Graphics/SVG/1.1/DTD/svg11.dtd">
<svg t="1699238156736" class="icon" viewBox="0 0 1025 1024" version="1.1" xmlns="http://www.w3.org/2000/svg" p-id="4878"
     width="200.1953125" height="200" xmlns:xlink="http://www.w3.org/1999/xlink">
    <path d="M0.995539 720.586048C0.995539 756.052826 26.202177 798.943757 56.618225 816.005357L414.208453 1016.59225C444.928015 1033.824102 469.831139 1018.613875 469.831139 983.576032L469.831139 596.742298C469.831139 561.276094 444.624501 518.385178 414.208453 501.323039L56.618225 300.729777C25.898663 283.497379 0.995539 298.707635 0.995539 333.746044L0.995539 720.586048ZM556.417565 13.963166C525.427603-3.239839 473.972758-4.485592 442.505964 10.690682L115.9858 168.16969C84.064123 183.565352 82.787785 210.478995 113.380896 228.427242L460.568488 432.113913C491.051516 449.997578 541.671178 452.085805 573.706191 436.741924L915.324384 273.116309C947.325581 257.788624 947.839168 231.247322 917.155392 214.214284L556.417565 13.963166ZM625.203414 502.374498C593.183743 517.702767 567.226671 559.308185 567.226671 594.346027L567.226671 981.179763C567.226671 1016.645965 593.14991 1032.985766 625.203414 1017.639552L967.018797 853.989011C999.038464 838.658989 1024.995539 797.053568 1024.995539 762.017427L1024.995539 375.202489C1024.995539 339.738008 999.072301 323.398186 967.018797 338.742651L625.203414 502.374498Z"
          fill="#467CFD" p-id="4879"></path>
</svg>