<?xml version="1.0" standalone="no"?><!DOCTYPE svg PUBLIC "-//W3C//DTD SVG 1.1//EN"
        "http://www.w3.org/Graphics/SVG/1.1/DTD/svg11.dtd">
<svg t="1701669493636" class="icon" viewBox="0 0 1024 1024" version="1.1" xmlns="http://www.w3.org/2000/svg"
     p-id="10537" xmlns:xlink="http://www.w3.org/1999/xlink" width="200" height="200">
    <path d="M799.7952 880.2816H294.144c-44.3392 0-80.2816-36.864-80.2816-82.3296V383.9488c0-15.0528 4.0448-29.7984 11.6224-42.7008l49.3568-83.456c14.5408-24.576 40.4992-39.5776 68.5568-39.6288l405.9136-0.5632c27.9552-0.0512 53.9648 14.848 68.5568 39.2704l50.3808 84.224c7.7312 12.9536 11.8272 27.8528 11.8272 43.008v413.7984c0 45.5168-35.9424 82.3808-80.2816 82.3808z"
          fill="#A5ADF6" p-id="10538"></path>
    <path d="M906.5984 263.168l-57.5488-93.8496c-22.1184-36.0448-62.1056-58.4704-104.3968-58.4704h-0.1536l-463.872 0.6144c-42.4448 0.0512-82.5344 22.6304-104.5504 58.9824L119.6032 263.424a122.4192 122.4192 0 0 0-17.7664 63.5392V788.48c0 67.5328 54.9376 122.4704 122.4704 122.4704h577.8432c67.5328 0 122.4704-54.9376 122.4704-122.4704V327.168c0.0512-22.5792-6.1952-44.7488-18.0224-64zM228.5568 202.2912c10.9568-18.1248 30.9248-29.3376 52.1216-29.3888l463.872-0.6144h0.1024c21.0944 0 41.0112 11.1616 52.0192 29.1328l45.2096 73.6768H184.3712l44.1856-72.8064z m573.6448 647.2704H224.3584c-33.6896 0-61.0304-27.392-61.0304-61.0304V336.5376h699.904V788.48c0 33.6896-27.392 61.0816-61.0304 61.0816z"
          fill="#5D5D66" p-id="10539"></path>
    <path d="M646.3488 599.8592l-103.0656 88.1152 0.512-264.2944a30.67904 30.67904 0 0 0-30.6688-30.7712h-0.0512c-16.9472 0-30.6688 13.7216-30.72 30.6688l-0.512 259.1232-91.0848-78.2336c-12.8512-11.0592-32.256-9.5744-43.3152 3.2768-11.0592 12.8512-9.5744 32.256 3.2768 43.3152l144.7424 124.3648c5.7344 4.9664 12.9024 7.424 20.0192 7.424 7.1168 0 14.2336-2.4576 19.968-7.3728l150.784-128.9216c12.9024-11.008 14.3872-30.4128 3.3792-43.3152a30.62272 30.62272 0 0 0-43.264-3.3792z"
          fill="#5D5D66" p-id="10540"></path>
</svg>