<?xml version="1.0" standalone="no"?><!DOCTYPE svg PUBLIC "-//W3C//DTD SVG 1.1//EN"
        "http://www.w3.org/Graphics/SVG/1.1/DTD/svg11.dtd">
<svg t="1701940533379" class="icon" viewBox="0 0 1024 1024" version="1.1" xmlns="http://www.w3.org/2000/svg" p-id="5342"
     xmlns:xlink="http://www.w3.org/1999/xlink" width="200" height="200">
    <path d="M512 512m-426.666667 0a426.666667 426.666667 0 1 0 853.333334 0 426.666667 426.666667 0 1 0-853.333334 0Z"
          fill="#6B98FC" p-id="5343"></path>
    <path d="M443.733333 471.466667h-96c-27.733333 0-49.066667-21.333333-49.066666-49.066667v-96c0-25.6 21.333333-49.066667 49.066666-49.066667h96c25.6 0 49.066667 21.333333 49.066667 49.066667v96c0 27.733333-21.333333 49.066667-49.066667 49.066667zM443.733333 725.333333h-96C320 725.333333 298.666667 704 298.666667 676.266667v-96c0-25.6 21.333333-49.066667 49.066666-49.066667h96c25.6 0 49.066667 21.333333 49.066667 49.066667v96c0 27.733333-21.333333 49.066667-49.066667 49.066666zM697.6 725.333333h-96c-25.6 0-49.066667-21.333333-49.066667-49.066666v-96c0-25.6 21.333333-49.066667 49.066667-49.066667h96c25.6 0 49.066667 21.333333 49.066667 49.066667v96c0 27.733333-21.333333 49.066667-49.066667 49.066666z"
          fill="#FFFFFF" p-id="5344"></path>
    <path d="M650.666667 373.333333m-96 0a96 96 0 1 0 192 0 96 96 0 1 0-192 0Z" fill="#FFFFFF" p-id="5345"></path>
</svg>