<?xml version="1.0" standalone="no"?><!DOCTYPE svg PUBLIC "-//W3C//DTD SVG 1.1//EN"
        "http://www.w3.org/Graphics/SVG/1.1/DTD/svg11.dtd">
<svg t="1699438223525" class="icon" viewBox="0 0 1024 1024" version="1.1" xmlns="http://www.w3.org/2000/svg" p-id="5286"
     xmlns:xlink="http://www.w3.org/1999/xlink" width="200" height="200">
    <path d="M555.989333 171.221333v573.696c0 0.085333 0.213333 0.170667 0.213334 0.085334l208-216.405334a43.946667 43.946667 0 1 1 63.402666 61.013334l-283.093333 294.570666a44.032 44.032 0 0 1-63.402667 0L196.266667 587.989333a43.818667 43.818667 0 0 1 1.194666-62.208 44.032 44.032 0 0 1 62.208 1.237334l208 216.362666c0.085333 0.128 0.170667 0 0.170667-0.085333V170.24c0-23.381333 18.346667-42.496 41.301333-43.904 25.6-1.493333 46.805333 19.413333 46.805334 44.885333z"
          fill="#000000" p-id="5287"></path>
</svg>