<?xml version="1.0" standalone="no"?><!DOCTYPE svg PUBLIC "-//W3C//DTD SVG 1.1//EN"
        "http://www.w3.org/Graphics/SVG/1.1/DTD/svg11.dtd">
<svg t="1699437917480" class="icon" viewBox="0 0 1024 1024" version="1.1" xmlns="http://www.w3.org/2000/svg"
     p-id="20865" xmlns:xlink="http://www.w3.org/1999/xlink" width="200" height="200">
    <path d="M512.682667 920.234667c-32.085333 0-64.853333-4.096-97.621334-12.288-213.674667-53.930667-343.381333-271.018667-289.450666-484.010667 34.133333-137.216 140.629333-247.125333 277.845333-286.72 10.922667-3.413333 22.528 3.413333 25.258667 14.336 3.413333 10.922667-3.413333 22.528-14.336 25.258667-122.88 35.498667-218.453333 133.802667-249.173334 256.682666-23.210667 92.842667-9.557333 189.098667 39.594667 271.018667 49.152 81.92 126.976 139.946667 219.818667 163.84 191.146667 48.469333 386.389333-68.266667 434.858666-259.413333 48.469333-191.146667-68.266667-386.389333-259.413333-434.858667-10.922667-2.730667-17.749333-13.653333-15.018667-24.576 2.730667-10.922667 13.653333-17.749333 24.576-15.018667 213.674667 53.930667 343.381333 271.018667 289.450667 484.010667-45.738667 180.906667-208.213333 301.738667-386.389333 301.738667z"
          fill="#6B6C6B" p-id="20866"></path>
    <path d="M512 542.037333c-11.605333 0-20.48-8.874667-20.48-20.48V332.458667c0-11.605333 8.874667-20.48 20.48-20.48s20.48 8.874667 20.48 20.48v189.098666c0 11.605333-8.874667 20.48-20.48 20.48z"
          fill="#6B6C6B" p-id="20867"></path>
    <path d="M511.317333 731.136c-115.370667 0-209.578667-94.208-209.578666-209.578667 0-71.68 36.181333-137.216 96.256-176.128 9.557333-6.144 21.845333-3.413333 27.989333 6.144 6.144 9.557333 3.413333 21.845333-6.144 27.989334-48.469333 31.402667-77.141333 84.650667-77.141333 141.994666 0 92.842667 75.776 168.618667 168.618666 168.618667S679.936 614.4 679.936 521.557333c0-56.661333-28.672-109.909333-77.141333-141.994666-9.557333-6.144-12.288-19.114667-6.144-28.672 6.144-9.557333 19.114667-12.288 28.672-6.144 60.074667 39.594667 96.256 105.130667 96.256 176.128-0.682667 116.053333-94.890667 210.261333-210.261334 210.261333zM374.784 312.661333c-1.365333 0-3.413333 0-4.778667-0.682666-10.922667-2.730667-17.749333-13.653333-15.018666-24.576l34.133333-134.485334c2.730667-10.922667 13.653333-17.749333 24.576-15.018666 10.922667 2.730667 17.749333 13.653333 15.018667 24.576l-34.133334 134.485333c-2.048 9.557333-10.922667 15.701333-19.797333 15.701333z"
          fill="#6B6C6B" p-id="20868"></path>
    <path d="M408.917333 178.176c-1.365333 0-3.413333 0-4.778666-0.682667l-134.485334-34.133333c-10.922667-2.730667-17.749333-13.653333-15.018666-24.576 2.730667-10.922667 13.653333-17.749333 24.576-15.018667l134.485333 34.133334c10.922667 2.730667 17.749333 13.653333 15.018667 24.576-2.048 9.557333-10.922667 15.701333-19.797334 15.701333z"
          fill="#6B6C6B" p-id="20869"></path>
</svg>