<?xml version="1.0" standalone="no"?><!DOCTYPE svg PUBLIC "-//W3C//DTD SVG 1.1//EN"
        "http://www.w3.org/Graphics/SVG/1.1/DTD/svg11.dtd">
<svg t="1699437935404" class="icon" viewBox="0 0 1024 1024" version="1.1" xmlns="http://www.w3.org/2000/svg"
     p-id="21822" xmlns:xlink="http://www.w3.org/1999/xlink" width="200" height="200">
    <path d="M872.2 417.1L553.3 149c-23.8-20-58.7-20-82.5 0l-319 268.1a63.948 63.948 0 0 0-22.8 49V810c0 44 36 80 80.1 80h605.8c44 0 80.1-36 80.1-80V466.1c0-18.9-8.3-36.8-22.8-49zM418.9 825.2v-92.8c0-53 43-96 96.1-96 50.7 0 92.1 41.4 92.1 92v96.8c0 4.4-3.6 8-8 8H426.9c-4.4 0-8-3.6-8-8z m419.4-37.3c0 24.9-21.8 45.2-48.5 45.2H671.6c-4.4 0-8-3.6-8-8V723.4c0-82.5-67.6-150-150.2-150-83.1 0-151 67.9-151 150.8v100.9c0 4.4-3.6 8-8 8h-125c-26.7 0-48.5-20.4-48.5-45.2V490.6c0-13.3 6.3-26 17.3-34.6l289.1-244.7c13.1-10.3 31.6-10.3 44.7 0L821.1 456c10.9 8.6 17.3 21.3 17.3 34.6v297.3z"
          fill="#333333" p-id="21823"></path>
</svg>