<?xml version="1.0" standalone="no"?><!DOCTYPE svg PUBLIC "-//W3C//DTD SVG 1.1//EN"
        "http://www.w3.org/Graphics/SVG/1.1/DTD/svg11.dtd">
<svg t="1699437793412" class="icon" viewBox="0 0 1024 1024" version="1.1" xmlns="http://www.w3.org/2000/svg"
     p-id="13626" xmlns:xlink="http://www.w3.org/1999/xlink" width="200" height="200">
    <path d="M861.429 256.647c2.413 5.362 4.346 11.615 5.808 18.765 1.492 7.146 2.233 14.593 2.233 22.336 0 7.744-1.488 15.482-4.469 23.225-2.988 7.746-7.755 15.192-14.29 22.337-7.15 7.15-13.55 13.402-19.213 18.762-5.66 5.362-10.572 10.127-14.743 14.297-4.762 4.764-9.232 8.935-13.402 12.507l-167.08-167.071c7.146-6.553 15.636-14.444 25.46-23.68 9.829-9.232 18.022-16.525 24.573-21.888 8.34-6.551 16.98-11.167 25.915-13.85 8.932-2.679 17.72-3.87 26.355-3.572 8.637 0.3 16.974 1.64 25.02 4.02 8.04 2.383 15.036 5.062 20.99 8.043 12.515 6.557 26.363 18.02 41.553 34.397 15.185 16.377 26.954 33.505 35.29 51.372zM165.405 692.651c3.572-3.573 11.914-12.062 25.015-25.463 13.106-13.404 29.488-29.93 49.142-49.588l65.228-65.217 72.373-72.37 192.1-192.095L736.34 455.886 544.243 647.978l-71.478 72.37c-23.826 23.23-45.27 44.526-64.331 63.883-19.06 19.36-34.848 35.29-47.356 47.799-12.51 12.508-19.956 19.656-22.337 21.443-5.953 5.36-12.809 11.018-20.548 16.973-7.743 5.96-15.783 10.724-24.126 14.296-8.336 4.171-20.55 9.232-36.635 15.19-16.08 5.955-32.907 11.762-50.48 17.421-17.57 5.662-34.248 10.575-50.037 14.746-15.784 4.164-27.545 6.849-35.29 8.037-16.086 1.788-26.805-0.596-32.167-7.147-5.36-6.549-6.85-17.568-4.468-33.058 1.192-8.338 4.024-20.396 8.49-36.184a3698.59 3698.59 0 0 1 14.293-49.14c5.065-16.973 9.978-32.61 14.745-46.904 4.765-14.294 8.634-24.124 11.614-29.484 3.575-8.337 7.597-15.933 12.063-22.783 4.468-6.853 10.874-14.445 19.21-22.785z m297.924 168.51h79.902v79.548H463.33V861.16z m162.34 0h79.902v79.548h-79.902V861.16z m162.987 0h79.902v79.548h-79.902V861.16z"
          p-id="13627"></path>
</svg>