<?xml version="1.0" standalone="no"?><!DOCTYPE svg PUBLIC "-//W3C//DTD SVG 1.1//EN"
        "http://www.w3.org/Graphics/SVG/1.1/DTD/svg11.dtd">
<svg t="1699437970917" class="icon" viewBox="0 0 1024 1024" version="1.1" xmlns="http://www.w3.org/2000/svg"
     p-id="23892" xmlns:xlink="http://www.w3.org/1999/xlink" width="200" height="200">
    <path d="M508.64 63.99l2.81-0.01c67.17-0.31 119.48-0.55 161.38 2.89 42.56 3.49 77.11 10.93 107.98 27.62A259.379 259.379 0 0 1 884.58 197.4c16.96 30.74 24.71 65.25 28.58 107.82 3.82 41.9 4.06 94.26 4.37 161.48l0.4 86.52c0.31 67.22 0.55 119.58-2.89 161.51-3.49 42.6-10.92 77.18-27.59 108.07a259.343 259.343 0 0 1-102.83 103.86c-30.71 16.97-65.2 24.73-107.73 28.61-41.87 3.82-94.18 4.06-161.35 4.37l-2.81 0.01c-67.17 0.31-119.48 0.55-161.38-2.89-42.57-3.49-77.12-10.93-107.98-27.62a259.403 259.403 0 0 1-103.78-102.91c-16.95-30.74-24.7-65.25-28.58-107.82-3.82-41.9-4.06-94.26-4.37-161.48l-0.4-86.52c-0.31-67.22-0.55-119.58 2.89-161.51 3.49-42.6 10.92-77.18 27.59-108.07A259.343 259.343 0 0 1 239.55 96.97C270.29 80 304.77 72.24 347.3 68.36c41.86-3.82 94.18-4.06 161.34-4.37z m-156.03 62.72c-38.67 3.53-64.07 10.13-84.75 21.55a200.795 200.795 0 0 0-79.61 80.41c-11.23 20.8-17.58 46.28-20.76 85.01-3.2 39.11-3 88.94-2.68 157.86l0.38 83.71c0.32 68.93 0.57 118.75 4.13 157.83 3.53 38.71 10.12 64.12 21.53 84.82a200.855 200.855 0 0 0 80.34 79.68c20.78 11.24 46.24 17.6 84.94 20.78 39.08 3.21 88.86 3 157.73 2.69 68.87-0.32 118.65-0.57 157.7-4.14 38.67-3.53 64.07-10.13 84.75-21.55a200.795 200.795 0 0 0 79.61-80.41c11.23-20.8 17.58-46.28 20.76-85.01 3.2-39.11 3-88.94 2.68-157.86l-0.36-83.71c-0.31-68.93-0.57-118.75-4.13-157.83-3.53-38.71-10.12-64.12-21.53-84.82A200.918 200.918 0 0 0 753 146.04c-20.78-11.24-46.24-17.6-84.94-20.77-39.08-3.21-88.86-3-157.73-2.69-68.88 0.32-118.67 0.57-157.72 4.13z"
          p-id="23893"></path>
    <path d="M680.27 707.76c0.07 16.18-12.97 29.36-29.14 29.43l-317.82 1.46c-16.17 0.07-29.33-12.98-29.41-29.16s12.97-29.36 29.14-29.43l317.82-1.46c16.17-0.08 29.34 12.98 29.41 29.16zM679.51 540.35c0.07 16.18-12.97 29.36-29.14 29.43l-317.82 1.46c-16.17 0.07-29.33-12.98-29.41-29.16-0.07-16.18 12.97-29.36 29.14-29.43l317.82-1.46c16.17-0.08 29.33 12.97 29.41 29.16zM511.47 373.7c0.07 16.18-12.97 29.36-29.14 29.43l-150.54 0.69c-16.17 0.07-29.33-12.98-29.41-29.16-0.07-16.18 12.97-29.36 29.14-29.43l150.55-0.69c16.16-0.08 29.32 12.98 29.4 29.16z"
          p-id="23894"></path>
</svg>