<?xml version="1.0" standalone="no"?><!DOCTYPE svg PUBLIC "-//W3C//DTD SVG 1.1//EN"
        "http://www.w3.org/Graphics/SVG/1.1/DTD/svg11.dtd">
<svg t="1699437895984" class="icon" viewBox="0 0 1024 1024" version="1.1" xmlns="http://www.w3.org/2000/svg"
     p-id="19877" xmlns:xlink="http://www.w3.org/1999/xlink" width="200" height="200">
    <path d="M938.666667 170.666667c0-25.6-17.066667-42.666667-42.666667-42.666667s-42.666667 17.066667-42.666667 42.666667v81.066666c-12.8-17.066667-29.866667-29.866667-38.4-42.666666C733.866667 128 627.2 85.333333 512 85.333333 277.333333 85.333333 85.333333 277.333333 85.333333 512s192 426.666667 426.666667 426.666667c115.2 0 221.866667-42.666667 302.933333-123.733334 17.066667-17.066667 17.066667-42.666667 0-59.733333s-42.666667-17.066667-59.733333 0C686.933333 819.2 601.6 853.333333 512 853.333333c-187.733333 0-341.333333-153.6-341.333333-341.333333s153.6-341.333333 341.333333-341.333333c89.6 0 174.933333 34.133333 243.2 98.133333 12.8 12.8 29.866667 29.866667 46.933333 51.2h-93.866666c-25.6 0-42.666667 17.066667-42.666667 42.666667s17.066667 42.666667 42.666667 42.666666h200.533333c4.266667 0 4.266667-4.266667 8.533333-4.266666 0 0 4.266667 0 4.266667-4.266667 4.266667-4.266667 4.266667-4.266667 4.266667-8.533333l4.266666-4.266667v-8.533333V170.666667z"
          p-id="19878"></path>
</svg>