<?xml version="1.0" standalone="no"?><!DOCTYPE svg PUBLIC "-//W3C//DTD SVG 1.1//EN"
        "http://www.w3.org/Graphics/SVG/1.1/DTD/svg11.dtd">
<svg t="1699438203144" class="icon" viewBox="0 0 1024 1024" version="1.1" xmlns="http://www.w3.org/2000/svg" p-id="5006"
     xmlns:xlink="http://www.w3.org/1999/xlink" width="200" height="200">
    <path d="M171.221333 468.010667h573.696c0.085333 0 0.170667-0.213333 0.085334-0.213334L528.597333 259.84a43.946667 43.946667 0 1 1 61.013334-63.402667l294.698666 283.221334a44.032 44.032 0 0 1 0 63.402666l-296.32 284.672a43.818667 43.818667 0 0 1-62.208-1.194666 44.032 44.032 0 0 1 1.237334-62.208l216.362666-208c0.128-0.085333 0-0.170667-0.085333-0.170667H170.24c-23.381333 0-42.496-18.346667-43.904-41.301333a44.672 44.672 0 0 1 44.885333-46.805334z"
          fill="#000000" p-id="5007"></path>
</svg>