<?xml version="1.0" standalone="no"?><!DOCTYPE svg PUBLIC "-//W3C//DTD SVG 1.1//EN"
        "http://www.w3.org/Graphics/SVG/1.1/DTD/svg11.dtd">
<svg t="1699438214922" class="icon" viewBox="0 0 1024 1024" version="1.1" xmlns="http://www.w3.org/2000/svg" p-id="5146"
     xmlns:xlink="http://www.w3.org/1999/xlink" width="200" height="200">
    <path d="M468.010667 852.821333V279.04c0-0.085333-0.213333-0.170667-0.213334-0.085333L259.84 495.402667a43.946667 43.946667 0 1 1-63.402667-61.013334l283.221334-294.698666a44.032 44.032 0 0 1 63.402666 0l284.672 296.32a43.818667 43.818667 0 0 1-1.194666 62.208 44.032 44.032 0 0 1-62.208-1.237334l-208-216.362666c-0.085333-0.128-0.170667 0-0.170667 0.085333V853.76c0 23.381333-18.346667 42.496-41.301333 43.904a44.672 44.672 0 0 1-46.805334-44.885333z"
          fill="#000000" p-id="5147"></path>
</svg>