<?xml version="1.0" standalone="no"?><!DOCTYPE svg PUBLIC "-//W3C//DTD SVG 1.1//EN"
        "http://www.w3.org/Graphics/SVG/1.1/DTD/svg11.dtd">
<svg t="1699438119207" class="icon" viewBox="0 0 1024 1024" version="1.1" xmlns="http://www.w3.org/2000/svg"
     p-id="28758" xmlns:xlink="http://www.w3.org/1999/xlink" width="200" height="200">
    <path d="M512 938.666667c-140.8 0-247.466667-140.8-283.733333-196.266667H128c-46.933333 0-85.333333-38.4-85.333333-85.333333V362.666667c0-46.933333 38.4-85.333333 85.333333-85.333334h100.266667c36.266667-53.333333 142.933333-192 283.733333-192 23.466667 0 42.666667 19.2 42.666667 42.666667v768c0 23.466667-19.2 42.666667-42.666667 42.666667zM128 362.666667v294.4h123.733333c14.933333 0 29.866667 8.533333 36.266667 21.333333 23.466667 40.533333 96 138.666667 181.333333 166.4V177.066667c-102.4 32-179.2 162.133333-181.333333 164.266666-8.533333 12.8-21.333333 21.333333-36.266667 21.333334H128zM938.666667 554.666667H682.666667c-23.466667 0-42.666667-19.2-42.666667-42.666667s19.2-42.666667 42.666667-42.666667h256c23.466667 0 42.666667 19.2 42.666666 42.666667s-19.2 42.666667-42.666666 42.666667z"
          fill="#333333" p-id="28759"></path>
    <path d="M810.666667 682.666667c-23.466667 0-42.666667-19.2-42.666667-42.666667V384c0-23.466667 19.2-42.666667 42.666667-42.666667s42.666667 19.2 42.666666 42.666667v256c0 23.466667-19.2 42.666667-42.666666 42.666667z"
          fill="#333333" p-id="28760"></path>
</svg>